<?xml version="1.0" encoding="UTF-8"?>
<svg version="1.1" xmlns="http://www.w3.org/2000/svg" width="50" height="50">
<path d="M0 0 C1.91595968 -0.08133791 3.83291932 -0.13934367 5.75 -0.1875 C7.35101562 -0.23970703 7.35101562 -0.23970703 8.984375 -0.29296875 C12.41157216 0.03998434 13.3532301 0.94140119 16 3 C18.80883637 3.57229868 18.80883637 3.57229868 21.75 3.6875 C23.22726563 3.78611328 23.22726563 3.78611328 24.734375 3.88671875 C25.48203125 3.92410156 26.2296875 3.96148437 27 4 C27 2.68 27 1.36 27 0 C28.98 0 30.96 0 33 0 C33 1.32 33 2.64 33 4 C35.31 4 37.62 4 40 4 C40 6.97 40 9.94 40 13 C33.4 13 26.8 13 20 13 C20 13.66 20 14.32 20 15 C26.6 15 33.2 15 40 15 C40 25.89 40 36.78 40 48 C25.48 48 10.96 48 -4 48 C-4.3125 36.25 -4.3125 36.25 -4.38793945 32.56347656 C-4.43760864 31.11666504 -4.43760864 31.11666504 -4.48828125 29.640625 C-4.51446533 28.65610352 -4.54064941 27.67158203 -4.56762695 26.65722656 C-5.0605642 23.62779176 -6.09403239 22.34583037 -8 20 C-8.29296875 17.08984375 -8.29296875 17.08984375 -8.1875 13.9375 C-8.16042969 12.89464844 -8.13335937 11.85179687 -8.10546875 10.77734375 C-8.07066406 9.86082031 -8.03585937 8.94429687 -8 8 C-8 7.01 -8 6.02 -8 5 C-8 4.34 -8 3.68 -8 3 C-5.69 3 -3.38 3 -1 3 C-0.67 2.01 -0.34 1.02 0 0 Z M29 2 C29 3.98 29 5.96 29 8 C29.66 8 30.32 8 31 8 C31 6.02 31 4.04 31 2 C30.34 2 29.68 2 29 2 Z M-1 3 C-1 5.31 -1 7.62 -1 10 C-1.66 10 -2.32 10 -3 10 C-3.33 9.34 -3.66 8.68 -4 8 C-5.61429923 11.22859847 -5.59570657 14.50993653 -5 18 C-3.26397895 21.02508145 -1.16419863 23.41790069 2 25 C7.12370398 25.60728845 7.12370398 25.60728845 11.82421875 23.953125 C15.62752744 20.82207185 16.88663367 19.13366332 17.375 14.25 C17.35058775 10.89941932 16.75601354 9.15105468 14.625 6.5625 C10.95705663 2.98188862 9.37547017 2.879355 4.375 2.9375 C2.87066406 2.95103516 2.87066406 2.95103516 1.3359375 2.96484375 C0.17964844 2.98224609 0.17964844 2.98224609 -1 3 Z M19 21 C19 22.65 19 24.3 19 26 C20.65 26 22.3 26 24 26 C24 24.35 24 22.7 24 21 C22.35 21 20.7 21 19 21 Z M26 21 C26 22.65 26 24.3 26 26 C27.65 26 29.3 26 31 26 C31 24.35 31 22.7 31 21 C29.35 21 27.7 21 26 21 Z M5 28 C5 29.65 5 31.3 5 33 C6.65 33 8.3 33 10 33 C10 31.35 10 29.7 10 28 C8.35 28 6.7 28 5 28 Z M12 28 C12 29.65 12 31.3 12 33 C13.65 33 15.3 33 17 33 C17 31.35 17 29.7 17 28 C15.35 28 13.7 28 12 28 Z M19 28 C19 29.65 19 31.3 19 33 C20.65 33 22.3 33 24 33 C24 31.35 24 29.7 24 28 C22.35 28 20.7 28 19 28 Z M26 28 C26 29.65 26 31.3 26 33 C27.65 33 29.3 33 31 33 C31 31.35 31 29.7 31 28 C29.35 28 27.7 28 26 28 Z M5 35 C5 36.65 5 38.3 5 40 C6.65 40 8.3 40 10 40 C10 38.35 10 36.7 10 35 C8.35 35 6.7 35 5 35 Z M12 35 C12 36.65 12 38.3 12 40 C13.65 40 15.3 40 17 40 C17 38.35 17 36.7 17 35 C15.35 35 13.7 35 12 35 Z M19 35 C19 36.65 19 38.3 19 40 C20.65 40 22.3 40 24 40 C24 38.35 24 36.7 24 35 C22.35 35 20.7 35 19 35 Z M26 35 C26 36.65 26 38.3 26 40 C27.65 40 29.3 40 31 40 C31 38.35 31 36.7 31 35 C29.35 35 27.7 35 26 35 Z " fill="#000000" transform="translate(8,0)"/>
<path d="M0 0 C0.66 0 1.32 0 2 0 C2.16276042 2.01822917 2.32552083 4.03645833 2.48828125 6.0546875 C2.87393036 8.39519216 2.87393036 8.39519216 6 10 C6 10.99 6 11.98 6 13 C3.83125748 12.49396008 2.00032373 12.00016187 0 11 C0 7.37 0 3.74 0 0 Z " fill="#000000" transform="translate(13,5)"/>
</svg>
