<?xml version="1.0" encoding="UTF-8"?>
<svg version="1.1" xmlns="http://www.w3.org/2000/svg" width="60" height="60">
<path d="M0 0 C3.12578143 1.6720747 5.39281175 3.7856235 7 7 C8.03994013 16.92400011 8.03994013 16.92400011 5.953125 21.08984375 C3.58625574 23.93704825 1.53109015 25.80723685 -2.171875 26.2734375 C-9.98876369 26.58137554 -9.98876369 26.58137554 -13.5625 23.625 C-17.63954121 19.23434023 -17.3874166 15.83575658 -17.359375 9.99609375 C-16.82285181 5.52312326 -15.3330708 3.93627666 -12 1 C-8.27533151 -0.86233425 -4.05504687 -0.57130829 0 0 Z " fill="#000000" transform="translate(35,6)"/>
<path d="M0 0 C1.0523584 0.00132935 1.0523584 0.00132935 2.12597656 0.00268555 C9.69805296 0.17414521 16.50203776 2.26712264 22.25 7.375 C22.5625 10.5 22.5625 10.5 22.25 13.375 C20.30136075 15.32363925 17.3519128 14.5041874 14.75878906 14.51394653 C13.84838867 14.5119223 12.93798828 14.50989807 12 14.5078125 C11.07155273 14.50876923 10.14310547 14.50972595 9.18652344 14.51071167 C7.21940035 14.51139355 5.25227504 14.50953872 3.28515625 14.50537109 C0.26296974 14.50002295 -2.75906815 14.50531582 -5.78125 14.51171875 C-7.68750033 14.51105797 -9.59375057 14.50977681 -11.5 14.5078125 C-12.86560059 14.51084885 -12.86560059 14.51084885 -14.25878906 14.51394653 C-20.63505031 14.48994969 -20.63505031 14.48994969 -21.75 13.375 C-22.3125 10.625 -22.3125 10.625 -21.75 7.375 C-15.69125926 1.84245263 -8.0163418 -0.01822768 0 0 Z " fill="#000000" transform="translate(29.75,37.625)"/>
</svg>
