<?xml version="1.0" encoding="UTF-8"?>
<svg version="1.1" xmlns="http://www.w3.org/2000/svg" width="60" height="60">
<path d="M0 0 C2.93423195 1.79646854 4.47205355 2.9441071 6 6 C6.084915 7.8863912 6.107193 9.77578515 6.09765625 11.6640625 C6.09443359 12.78554688 6.09121094 13.90703125 6.08789062 15.0625 C6.07951172 16.238125 6.07113281 17.41375 6.0625 18.625 C6.05798828 19.80835937 6.05347656 20.99171875 6.04882812 22.2109375 C6.03701467 25.14067507 6.02054258 28.07031272 6 31 C2.7 31 -0.6 31 -4 31 C-4.33 24.07 -4.66 17.14 -5 10 C-6.98 10 -8.96 10 -11 10 C-13.0140956 13.0211434 -13.26836596 13.80660017 -13.4140625 17.23046875 C-13.47207031 18.43413086 -13.47207031 18.43413086 -13.53125 19.66210938 C-13.57765625 20.91217773 -13.57765625 20.91217773 -13.625 22.1875 C-13.68300781 23.4549707 -13.68300781 23.4549707 -13.7421875 24.74804688 C-13.83636279 26.83167524 -13.91926675 28.91580753 -14 31 C-17.3 31 -20.6 31 -24 31 C-24 21.1 -24 11.2 -24 1 C-20 1 -16 1 -12 1 C-8.30274625 -0.84862688 -4.03538558 -0.47587094 0 0 Z " fill="#000000" transform="translate(48,19)"/>
<path d="M0 0 C3.3 0 6.6 0 10 0 C10 9.9 10 19.8 10 30 C6.7 30 3.4 30 0 30 C0 20.1 0 10.2 0 0 Z " fill="#000000" transform="translate(8,20)"/>
<path d="M0 0 C3 0.25 3 0.25 5 2.25 C5.25 5.25 5.25 5.25 5 8.25 C3 10.25 3 10.25 0 10.5 C-3 10.25 -3 10.25 -5 8.25 C-5.25 5.25 -5.25 5.25 -5 2.25 C-3 0.25 -3 0.25 0 0 Z " fill="#000000" transform="translate(13,5.75)"/>
</svg>
