<?xml version="1.0" encoding="UTF-8"?>
<svg version="1.1" xmlns="http://www.w3.org/2000/svg" width="60" height="60">
<path d="M0 0 C3.55237404 0.67725117 6.6330338 0.04599843 10.171875 -0.5859375 C9.841875 0.7340625 9.511875 2.0540625 9.171875 3.4140625 C9.831875 3.4140625 10.491875 3.4140625 11.171875 3.4140625 C10.53458322 7.11035482 10.53458322 7.11035482 8.70703125 8.640625 C6.48282874 11.21005996 6.43385815 13.64501498 5.921875 16.9765625 C4.27545011 25.15802771 1.42077964 31.04303072 -5.19140625 36.2890625 C-13.95544042 41.95910638 -22.5858785 43.56163031 -32.828125 41.4140625 C-35.70824176 40.29199808 -38.14736745 38.98205277 -40.828125 37.4140625 C-40.828125 37.0840625 -40.828125 36.7540625 -40.828125 36.4140625 C-39.78011719 36.21490234 -39.78011719 36.21490234 -38.7109375 36.01171875 C-37.80085938 35.83511719 -36.89078125 35.65851562 -35.953125 35.4765625 C-35.04820313 35.30253906 -34.14328125 35.12851562 -33.2109375 34.94921875 C-30.82856183 34.51442549 -30.82856183 34.51442549 -28.828125 33.4140625 C-29.570625 32.9396875 -30.313125 32.4653125 -31.078125 31.9765625 C-34.27197128 29.00047847 -35.43617901 26.33405841 -37.03125 22.33984375 C-37.67262782 20.441888 -37.67262782 20.441888 -38.828125 19.4140625 C-38.95475591 16.58989868 -39.01333048 13.80111457 -39.015625 10.9765625 C-39.02787109 10.18701172 -39.04011719 9.39746094 -39.05273438 8.58398438 C-39.05799779 6.52598815 -38.95018785 4.46844241 -38.828125 2.4140625 C-38.168125 1.7540625 -37.508125 1.0940625 -36.828125 0.4140625 C-36.42722656 0.80078125 -36.02632812 1.1875 -35.61328125 1.5859375 C-29.93637734 6.78654789 -23.57566581 10.41437981 -15.828125 11.4140625 C-15.7353125 9.5578125 -15.7353125 9.5578125 -15.640625 7.6640625 C-15.22154637 4.28149928 -14.97737475 3.57137981 -12.515625 0.9765625 C-7.673854 -1.83842064 -5.39093221 -1.51999968 0 0 Z " fill="#000000" transform="translate(44.828125,9.5859375)"/>
</svg>
