<?xml version="1.0" encoding="UTF-8"?>
<svg version="1.1" xmlns="http://www.w3.org/2000/svg" width="48" height="48">
<path d="M0 0 C11.73726974 6.3077591 11.73726974 6.3077591 17.1484375 10.3125 C19.04360728 11.21767544 19.04360728 11.21767544 21.2421875 10.4140625 C24.85127499 8.56351056 28.29878295 6.50291803 31.75 4.375 C38.87615031 0 38.87615031 0 40 0 C40.02886984 3.97915159 40.04675406 7.95827653 40.0625 11.9375 C40.07087891 13.07380859 40.07925781 14.21011719 40.08789062 15.38085938 C40.09111328 16.46044922 40.09433594 17.54003906 40.09765625 18.65234375 C40.10289307 19.65257568 40.10812988 20.65280762 40.11352539 21.68334961 C40 24 40 24 39 25 C36.20006403 25.10103255 33.42531356 25.13970088 30.625 25.1328125 C29.78533691 25.13376923 28.94567383 25.13472595 28.08056641 25.13571167 C26.30175705 25.13639348 24.52294523 25.13453917 22.74414062 25.13037109 C20.01166224 25.12502283 17.27934824 25.13031605 14.546875 25.13671875 C12.8229163 25.13605797 11.09895771 25.13477681 9.375 25.1328125 C8.55209473 25.13483673 7.72918945 25.13686096 6.88134766 25.13894653 C1.11495054 25.11495054 1.11495054 25.11495054 0 24 C-0.08726223 22.21928754 -0.10699041 20.4351686 -0.09765625 18.65234375 C-0.09443359 17.57275391 -0.09121094 16.49316406 -0.08789062 15.38085938 C-0.07951172 14.24455078 -0.07113281 13.10824219 -0.0625 11.9375 C-0.05798828 10.79732422 -0.05347656 9.65714844 -0.04882812 8.48242188 C-0.03699747 5.65489649 -0.0205141 2.8274736 0 0 Z " fill="#A5A4A4" transform="translate(4,15)"/>
<path d="M0 0 C12.54 0 25.08 0 38 0 C38.495 2.475 38.495 2.475 39 5 C36.14245431 6.88218085 33.26165394 8.72533497 30.375 10.5625 C29.56675781 11.09552734 28.75851563 11.62855469 27.92578125 12.17773438 C21.93520326 15.95228555 21.93520326 15.95228555 17.9375 16.15625 C13.8392714 14.54311746 10.296977 12.35117747 6.625 9.9375 C5.88894531 9.46505859 5.15289062 8.99261719 4.39453125 8.50585938 C2.59057835 7.34617537 0.7944761 6.17429493 -1 5 C-0.67 3.35 -0.34 1.7 0 0 Z " fill="#A5A4A4" transform="translate(5,8)"/>
</svg>
