<?xml version="1.0" encoding="UTF-8"?>
<svg version="1.1" xmlns="http://www.w3.org/2000/svg" width="50" height="50">
<path d="M0 0 C-0.50818586 6.77599825 -1.58029422 13.15431235 -3.28515625 19.7265625 C-3.50570175 20.60025482 -3.72624725 21.47394714 -3.95347595 22.37411499 C-4.64979044 25.12616151 -5.35595083 27.87556542 -6.0625 30.625 C-6.54037098 32.50634355 -7.01759041 34.38785272 -7.49414062 36.26953125 C-8.65524736 40.84830074 -9.8251826 45.42473008 -11 50 C-15.94566091 49.24275229 -17.84957984 47.58510924 -21.3125 43.9375 C-22.19550781 43.01839844 -23.07851563 42.09929688 -23.98828125 41.15234375 C-24.65214844 40.44207031 -25.31601562 39.73179688 -26 39 C-29.63823886 41.80129981 -29.63823886 41.80129981 -32.625 45.25 C-33.07875 45.8275 -33.5325 46.405 -34 47 C-34.99 47 -35.98 47 -37 47 C-37 42.38 -37 37.76 -37 33 C-38.959375 32.4225 -40.91875 31.845 -42.9375 31.25 C-46.27734375 30.265625 -46.27734375 30.265625 -49 29 C-49.67016602 26.92089844 -49.67016602 26.92089844 -50 25 C-49.41847168 24.69932617 -48.83694336 24.39865234 -48.23779297 24.08886719 C-34.35756596 16.9029778 -20.57335985 9.5635681 -6.8815918 2.0246582 C-4.20013287 0.56441646 -3.15784213 0 0 0 Z M-11.42578125 7.81640625 C-13.08770508 8.71649414 -13.08770508 8.71649414 -14.78320312 9.63476562 C-15.95970342 10.27721923 -17.13613551 10.91979776 -18.3125 11.5625 C-20.57942708 12.79296875 -22.84635417 14.0234375 -25.11328125 15.25390625 C-26.23814941 15.86637207 -27.36301758 16.47883789 -28.52197266 17.10986328 C-34.00565203 20.08997319 -39.50256739 23.04535011 -45 26 C-41.43105599 28.37929601 -38.34742394 30.22196355 -34 30 C-31.53722547 28.46076592 -29.69383504 26.63133504 -27.640625 24.578125 C-24.47651962 21.48890969 -21.10492021 18.78406784 -17.625 16.0625 C-17.01769043 15.57821533 -16.41038086 15.09393066 -15.78466797 14.5949707 C-13.20480368 12.56680047 -11.13797432 11.04599144 -8 10 C-9.48044529 14.4662872 -11.96625372 17.81216754 -14.875 21.4375 C-18.11532057 25.5191501 -21.16292378 29.62562434 -24 34 C-22.59155282 37.21524305 -20.89655214 39.32183868 -18.375 41.75 C-17.74335937 42.36359375 -17.11171875 42.9771875 -16.4609375 43.609375 C-15.97882812 44.06828125 -15.49671875 44.5271875 -15 45 C-14.01 44.505 -14.01 44.505 -13 44 C-12.18035561 41.37690997 -11.47968277 38.79999549 -10.8359375 36.1328125 C-10.63900299 35.34228485 -10.44206848 34.5517572 -10.23916626 33.73727417 C-9.82353661 32.06197174 -9.41189487 30.38567573 -9.00390625 28.70849609 C-8.37879536 26.14059103 -7.74128222 23.57601899 -7.1015625 21.01171875 C-6.69978449 19.38559842 -6.29871919 17.7593018 -5.8984375 16.1328125 C-5.7078476 15.36397736 -5.51725769 14.59514221 -5.32089233 13.80300903 C-4.59270347 10.79650207 -4 8.10569022 -4 5 C-6.96315289 5 -8.83116069 6.40461199 -11.42578125 7.81640625 Z M-21 22 C-28.82042283 27.23293869 -28.82042283 27.23293869 -34.01953125 34.66796875 C-34.33692021 37.3588982 -34.33692021 37.3588982 -34 41 C-30.15274582 37.31911357 -26.88614275 33.43814081 -23.6875 29.1875 C-23.23310547 28.59001953 -22.77871094 27.99253906 -22.31054688 27.37695312 C-21.20366083 25.92052412 -20.10134736 24.46062183 -19 23 C-19.66 22.67 -20.32 22.34 -21 22 Z " fill="#FFFFFF" transform="translate(50,0)"/>
</svg>
