<?xml version="1.0" encoding="UTF-8"?>
<svg version="1.1" xmlns="http://www.w3.org/2000/svg" width="48" height="48">
<path d="M0 0 C0 2.31 0 4.62 0 7 C-1.65 7.33 -3.3 7.66 -5 8 C-5.66 9.98 -6.32 11.96 -7 14 C-4.69 14 -2.38 14 0 14 C0.04241723 16.33294775 0.04092937 18.66702567 0 21 C-0.33 21.33 -0.66 21.66 -1 22 C-2.98 22 -4.96 22 -7 22 C-7 27.94 -7 33.88 -7 40 C-9.64 40 -12.28 40 -15 40 C-15 34.06 -15 28.12 -15 22 C-16.98 22 -18.96 22 -21 22 C-21 19.36 -21 16.72 -21 14 C-19.02 14 -17.04 14 -15 14 C-15.04640625 13.32453125 -15.0928125 12.6490625 -15.140625 11.953125 C-15.42780749 4.85561497 -15.42780749 4.85561497 -13.6875 1.375 C-9.32237279 -0.8583209 -4.80626028 -0.2983196 0 0 Z " fill="#000000" transform="translate(35,4)"/>
</svg>
